# File created by Blade
# Date/Time:  Fri Jan 16 15:45:56 2015
#---------------------------------------------------------
:version 1.10
:name HOM
:units
  mass 1.0
  length 1.000000
  angle deg
:documentation
     Acclaim Skeleton File
:root
   axis xyz
   order TX TY TZ RX RY RZ
   position 0.000000 0.000000 0.000000
   orientation 0 0 0
:bonedata
   begin
      id 1
      name Spine_dum
      direction 0.000000 1.000000 0.000000
      length 7.170412
      axis 0.0 0.0 0.0 xyz
   end
   begin
      id 2
      name LeftUpLeg_dum
      direction 1.000000 0.000000 0.000000
      length 4.318350
      axis 0.0 0.0 0.0 xyz
   end
   begin
      id 3
      name RightUpLeg_dum
      direction -1.000000 0.000000 0.000000
      length 4.318350
      axis 0.0 0.0 0.0 xyz
   end
   begin
      id 4
      name Spine
      direction 0.000000 1.000000 0.000000
      length 0.000000
      axis 0.0 0.0 0.0 xyz
      dof rx ry rz
   end
   begin
      id 5
      name Spine_dum1
      direction 0.000000 1.000000 0.000000
      length 14.276153
      axis 0.0 0.0 0.0 xyz
   end
   begin
      id 6
      name Spine_dum2
      direction 0.000000 1.000000 0.000000
      length 10.718243
      axis 0.0 0.0 0.0 xyz
   end
   begin
      id 7
      name Spine_dum3
      direction 0.000000 1.000000 0.000000
      length 10.718243
      axis 0.0 0.0 0.0 xyz
   end
   begin
      id 8
      name Head
      direction 0.000000 1.000000 0.000000
      length 4.527550
      axis 0.0 0.0 0.0 xyz
      dof rx ry rz
   end
   begin
      id 9
      name LeftShoulder
      direction 1.000000 0.000000 0.000000
      length 7.058872
      axis 0.0 0.0 -90.0 xyz
      dof rx ry rz
   end
   begin
      id 10
      name LeftArm
      direction 1.000000 0.000000 0.000000
      length 10.955525
      axis 0.0 0.0 -90.0 xyz
      dof rx ry rz
   end
   begin
      id 11
      name LeftForeArm
      direction 1.000000 0.000000 0.000000
      length 8.193716
      axis 0.0 0.0 -90.0 xyz
      dof ry rz rx
   end
   begin
      id 12
      name LeftHand
      direction 0.000000 0.000000 0.000000
      length 0.000000
      axis 0.0 0.0 -90.0 xyz
      dof rx ry rz
   end
   begin
      id 13
      name LeftHand_dum1
      direction 0.000000 0.000000 0.000000
      length 0.000000
      axis 0.0 0.0 -90.0 xyz
   end
   begin
      id 14
      name LeftHand_dum2
      direction 1.000000 0.000000 0.000000
      length 3.937000
      axis 0.0 0.0 -90.0 xyz
   end
   begin
      id 15
      name LeftHandThumb1
      direction 0.000000 0.000000 1.000000
      length 3.937000
      axis 0.0 0.0 -90.0 xyz
      dof rx rz ry
   end
   begin
      id 16
      name RightShoulder
      direction -1.000000 0.000000 0.000000
      length 7.058872
      axis 0.0 0.0 90.0 xyz
      dof rx ry rz
   end
   begin
      id 17
      name RightArm
      direction -1.000000 0.000000 0.000000
      length 10.955525
      axis 0.0 0.0 90.0 xyz
      dof rx ry rz
   end
   begin
      id 18
      name RightForeArm
      direction -1.000000 0.000000 0.000000
      length 8.193716
      axis 0.0 0.0 90.0 xyz
      dof ry rz rx
   end
   begin
      id 19
      name RightHand
      direction 0.000000 0.000000 0.000000
      length 0.000000
      axis 0.0 0.0 90.0 xyz
      dof rx ry rz
   end
   begin
      id 20
      name RightHand_dum1
      direction 0.000000 0.000000 0.000000
      length 0.000000
      axis 0.0 0.0 90.0 xyz
   end
   begin
      id 21
      name RightHand_dum2
      direction -1.000000 0.000000 0.000000
      length 3.937000
      axis 0.0 0.0 90.0 xyz
   end
   begin
      id 22
      name RightHandThumb1
      direction 0.000000 0.000000 1.000000
      length 3.937000
      axis 0.0 0.0 90.0 xyz
      dof rx rz ry
   end
   begin
      id 23
      name LeftUpLeg
      direction 0.000000 -1.000000 0.000000
      length 17.323638
      axis 0.0 0.0 0.0 xyz
      dof rx ry rz
   end
   begin
      id 24
      name LeftLeg
      direction 0.000000 -1.000000 0.000000
      length 16.270368
      axis 0.0 0.0 0.0 xyz
      dof rx ry rz
   end
   begin
      id 25
      name LeftFoot
      direction 0.000000 -0.258819 0.965926
      length 4.922846
      axis 15.0 0.0 0.0 xyz
      dof rx ry rz
   end
   begin
      id 26
      name LeftToeBase
      direction 0.000000 0.000000 1.000000
      length 2.952750
      axis 0.0 0.0 0.0 xyz
      dof rx ry rz
   end
   begin
      id 27
      name RightUpLeg
      direction 0.000000 -1.000000 0.000000
      length 17.323638
      axis 0.0 0.0 0.0 xyz
      dof rx ry rz
   end
   begin
      id 28
      name RightLeg
      direction 0.000000 -1.000000 0.000000
      length 16.270368
      axis 0.0 0.0 0.0 xyz
      dof rx ry rz
   end
   begin
      id 29
      name RightFoot
      direction 0.000000 -0.258819 0.965926
      length 4.922846
      axis 15.0 0.0 0.0 xyz
      dof rx ry rz
   end
   begin
      id 30
      name RightToeBase
      direction 0.000000 0.000000 1.000000
      length 2.952750
      axis 0.0 0.0 0.0 xyz
      dof rx ry rz
   end
:hierarchy
   begin
      root Spine_dum LeftUpLeg_dum RightUpLeg_dum
      Spine_dum Spine
      LeftUpLeg_dum LeftUpLeg
      RightUpLeg_dum RightUpLeg
      Spine Spine_dum1 Spine_dum2 Spine_dum3
      Spine_dum1 Head
      Spine_dum2 LeftShoulder
      Spine_dum3 RightShoulder
      LeftShoulder LeftArm
      LeftArm LeftForeArm
      LeftForeArm LeftHand
      LeftHand LeftHand_dum1 LeftHand_dum2
      LeftHand_dum1 LeftHandThumb1
      RightShoulder RightArm
      RightArm RightForeArm
      RightForeArm RightHand
      RightHand RightHand_dum1 RightHand_dum2
      RightHand_dum1 RightHandThumb1
      LeftUpLeg LeftLeg
      LeftLeg LeftFoot
      LeftFoot LeftToeBase
      RightUpLeg RightLeg
      RightLeg RightFoot
      RightFoot RightToeBase
   end

# File created by Blade
# Date/Time:  Fri Jan 16 15:45:48 2015
# Frame Rate: 120.000 fps
#------------------------------------------------------
:FULLY-SPECIFIED
:DEGREES
2342
root -5.851680 35.335769 -10.127591 -2.687061 4.007115 -4.015138
Spine -2.041814 -9.064717 -4.386697
Head -10.699398 -9.209844 10.550535
LeftShoulder -20.155484 12.485430 -17.269949
LeftArm 20.249698 9.629786 -64.552231
LeftForeArm 12.952836 0.000000 15.281439
LeftHand 3.032148 0.000000 -8.769702
LeftHandThumb1 -26.253704 0.000000 33.147579
RightShoulder -6.633568 15.972836 -48.070231
RightArm 24.526574 -13.343652 -20.463207
RightForeArm -48.956390 -0.000000 25.915114
RightHand 4.502308 -0.000000 29.481549
RightHandThumb1 -24.326973 -0.000000 -32.862282
LeftUpLeg 9.791760 8.583477 6.164023
LeftLeg -8.290349 -0.000000 0.000000
LeftFoot -12.989133 22.903397 -10.938174
LeftToeBase 21.588472 -0.000000 -0.000000
RightUpLeg 8.832623 -9.227001 1.239418
RightLeg -1.539486 -0.000000 0.000000
RightFoot -7.962162 -30.015790 7.084192
RightToeBase 12.936892 -0.000000 -0.000000
2343
root -5.852327 35.339557 -10.135634 -2.715611 4.025000 -4.003012
Spine -1.989103 -9.029020 -4.421322
Head -10.749096 -9.231358 10.397740
LeftShoulder -20.199976 12.483017 -17.350559
LeftArm 20.236782 9.515716 -64.508591
LeftForeArm 13.040978 -0.000000 15.466938
LeftHand 2.995464 0.000000 -8.785368
LeftHandThumb1 -26.253704 0.000000 33.147579
RightShoulder -6.563783 15.687083 -48.144295
RightArm 24.199568 -13.598918 -20.141748
RightForeArm -47.557384 -0.000000 27.439440
RightHand 4.604734 -0.000000 29.072567
RightHandThumb1 -24.326973 -0.000000 -32.862282
LeftUpLeg 9.794602 8.588721 6.154579
LeftLeg -8.274681 -0.000000 0.000000
LeftFoot -13.005414 22.858276 -11.022000
LeftToeBase 21.726493 -0.000000 -0.000000
RightUpLeg 8.860092 -9.226553 1.220933
RightLeg -1.553493 -0.000000 0.000000
RightFoot -7.939368 -29.980268 7.189092
RightToeBase 12.804870 -0.000000 -0.000000
2344
root -5.852694 35.342587 -10.143889 -2.738521 4.045408 -3.995386
Spine -1.929657 -8.992527 -4.455447
Head -10.798045 -9.259692 10.310099
LeftShoulder -20.266907 12.472153 -17.443380
LeftArm 20.248631 9.430612 -64.441318
LeftForeArm 13.054139 -0.000000 15.628031
LeftHand 3.075401 -0.000000 -8.803806
LeftHandThumb1 -26.253704 0.000000 33.147579
RightShoulder -6.473859 15.430153 -48.242259
RightArm 23.764972 -13.876661 -19.727957
RightForeArm -46.363691 -0.000000 29.177616
RightHand 4.649800 -0.000000 28.859156
RightHandThumb1 -24.326973 -0.000000 -32.862282
LeftUpLeg 9.791413 8.578388 6.147511
LeftLeg -8.254145 -0.000000 0.000000
LeftFoot -12.952063 22.862092 -11.029391
LeftToeBase 21.606344 -0.000000 -0.000000
RightUpLeg 8.880730 -9.244695 1.210429
RightLeg -1.571481 -0.000000 0.000000
RightFoot -7.908135 -29.972079 7.204434
RightToeBase 12.795146 -0.000000 -0.000000
2345
root -5.852950 35.346939 -10.151974 -2.758454 4.067623 -3.979330
Spine -1.847337 -8.958583 -4.528514
Head -10.886969 -9.350181 10.254918
LeftShoulder -20.388301 12.410721 -17.515164
LeftArm 20.273327 9.416157 -64.357003
LeftForeArm 12.973876 0.000000 15.773640
LeftHand 3.123452 -0.000000 -8.885258
LeftHandThumb1 -26.253704 0.000000 33.147579
RightShoulder -6.350164 15.156297 -48.316847
RightArm 23.131434 -14.216804 -19.264802
RightForeArm -44.992410 -0.000000 31.259940
RightHand 4.854574 -0.000000 28.902504
RightHandThumb1 -24.326973 -0.000000 -32.862282
LeftUpLeg 9.781999 8.557710 6.127269
LeftLeg -8.224409 -0.000000 0.000000
LeftFoot -12.922867 22.843107 -11.169855
LeftToeBase 21.392630 -0.000000 -0.000000
RightUpLeg 8.899750 -9.270661 1.190237
RightLeg -1.587268 -0.000000 0.000000
RightFoot -7.905024 -29.964024 7.204343
RightToeBase 12.882474 -0.000000 -0.000000
2346
root -5.855680 35.349523 -10.160892 -2.777182 4.112444 -3.974755
Spine -1.749340 -8.956711 -4.592399
Head -11.025935 -9.378059 10.212281
LeftShoulder -20.526115 12.344180 -17.592134
LeftArm 20.322716 9.435606 -64.248686
LeftForeArm 12.830472 -0.000000 15.903676
LeftHand 3.047226 -0.000000 -9.114817
LeftHandThumb1 -26.253704 0.000000 33.147579
RightShoulder -6.276031 14.967505 -48.436733
RightArm 22.588192 -14.696100 -18.793273
RightForeArm -43.823587 0.000000 33.371455
RightHand 4.965894 -0.000000 28.177753
RightHandThumb1 -24.326973 -0.000000 -32.862282
LeftUpLeg 9.771554 8.543351 6.130306
LeftLeg -8.223448 -0.000000 0.000000
LeftFoot -12.912716 22.811778 -11.143660
LeftToeBase 21.592460 -0.000000 -0.000000
RightUpLeg 8.915200 -9.295064 1.187318
RightLeg -1.600423 -0.000000 0.000000
RightFoot -7.874920 -29.975884 7.192670
RightToeBase 12.876353 -0.000000 -0.000000
2347
root -5.857844 35.351669 -10.168377 -2.801419 4.164304 -3.973274
Spine -1.688037 -8.988220 -4.621829
Head -11.053408 -9.330069 10.115771
LeftShoulder -20.619067 12.342676 -17.681574
LeftArm 20.349699 9.346124 -64.175620
LeftForeArm 12.763563 -0.000000 16.051400
LeftHand 3.081118 -0.000000 -9.252821
LeftHandThumb1 -26.253704 0.000000 33.147579
RightShoulder -6.218246 14.815884 -48.537169
RightArm 22.244943 -15.389258 -18.540183
RightForeArm -42.590522 -0.000000 35.576800
RightHand 5.331688 -0.000000 28.681400
RightHandThumb1 -24.326973 -0.000000 -32.862282
LeftUpLeg 9.785945 8.454838 6.126821
LeftLeg -8.251247 -0.000000 0.000000
LeftFoot -12.873958 22.850755 -11.171715
LeftToeBase 21.549898 -0.000000 -0.000000
RightUpLeg 8.942578 -9.338843 1.180986
RightLeg -1.617741 -0.000000 0.000000
RightFoot -7.853526 -29.953962 7.295008
RightToeBase 12.721104 -0.000000 -0.000000
2348
root -5.859445 35.355095 -10.173899 -2.841937 4.222479 -3.954522
Spine -1.587659 -9.050402 -4.699295
Head -11.142692 -9.325979 10.052280
LeftShoulder -20.737784 12.322804 -17.767967
LeftArm 20.334386 9.242151 -64.104059
LeftForeArm 12.700723 0.000000 16.257625
LeftHand 3.117146 -0.000000 -9.293234
LeftHandThumb1 -26.253704 0.000000 33.147579
RightShoulder -6.065970 14.643537 -48.630943
RightArm 21.629246 -15.945790 -18.097782
RightForeArm -42.110983 -0.000000 38.236524
RightHand 5.314306 0.000000 27.772312
RightHandThumb1 -24.326973 -0.000000 -32.862282
LeftUpLeg 9.786160 8.473759 6.114660
LeftLeg -8.210405 -0.000000 0.000000
LeftFoot -12.826085 22.771611 -11.280124
LeftToeBase 21.352198 -0.000000 -0.000000
RightUpLeg 8.990896 -9.360121 1.157996
RightLeg -1.634611 -0.000000 0.000000
RightFoot -7.858330 -29.956585 7.343262
RightToeBase 12.749184 -0.000000 -0.000000
2349
root -5.863458 35.356709 -10.179558 -2.891707 4.285534 -3.953848
Spine -1.441334 -9.117007 -4.782024
Head -11.222627 -9.298066 10.116111
LeftShoulder -20.870832 12.275336 -17.813397
LeftArm 20.326777 9.163594 -64.069753
LeftForeArm 12.577613 0.000000 16.434966
LeftHand 3.173411 -0.000000 -9.298916
LeftHandThumb1 -26.253704 0.000000 33.147579
RightShoulder -5.977450 14.543108 -48.759558
RightArm 21.056550 -16.614354 -17.586124
RightForeArm -41.455923 -0.000000 40.952975
RightHand 5.397944 -0.000000 27.400908
RightHandThumb1 -24.326973 -0.000000 -32.862282
LeftUpLeg 9.828697 8.400579 6.122242
LeftLeg -8.254746 -0.000000 0.000000
LeftFoot -12.838187 22.776672 -11.268023
LeftToeBase 21.627965 -0.000000 -0.000000
RightUpLeg 9.037336 -9.401215 1.157993
RightLeg -1.633922 -0.000000 0.000000
RightFoot -7.844969 -30.010793 7.272210
RightToeBase 12.852641 -0.000000 -0.000000
2350
root -5.866593 35.358444 -10.184392 -2.945052 4.358536 -3.942577
Spine -1.299740 -9.214761 -4.884874
Head -11.315465 -9.292160 10.164754
LeftShoulder -20.998793 12.292166 -17.862654
LeftArm 20.355220 9.073096 -64.018637
LeftForeArm 12.423858 -0.000000 16.602957
LeftHand 3.161562 -0.000000 -9.200879
LeftHandThumb1 -26.253704 0.000000 33.147579
RightShoulder -5.905244 14.251581 -48.808299
RightArm 20.506138 -17.116119 -17.111739
RightForeArm -40.545431 -0.000000 43.731849
RightHand 5.430202 -0.000000 27.182132
RightHandThumb1 -24.326973 -0.000000 -32.862282
LeftUpLeg 9.853956 8.343936 6.120982
LeftLeg -8.243883 -0.000000 0.000000
LeftFoot -12.765198 22.756648 -11.275116
LeftToeBase 21.472423 -0.000000 -0.000000
RightUpLeg 9.096022 -9.404505 1.144612
RightLeg -1.642793 -0.000000 0.000000
RightFoot -7.853871 -30.038700 7.386672
RightToeBase 12.718350 -0.000000 -0.000000
2351
root -5.869164 35.360334 -10.189943 -2.997690 4.428691 -3.933428
Spine -1.156045 -9.318801 -4.976115
Head -11.405396 -9.291437 10.179811
LeftShoulder -21.111992 12.309218 -17.921729
LeftArm 20.360440 8.905761 -63.995296
LeftForeArm 12.285322 0.000000 16.796944
LeftHand 3.226167 -0.000000 -9.138203
LeftHandThumb1 -26.253704 0.000000 33.147579
RightShoulder -5.892589 14.110421 -48.925197
RightArm 20.096735 -17.724576 -16.583940
RightForeArm -39.969505 -0.000000 46.627184
RightHand 5.568804 -0.000000 27.222005
RightHandThumb1 -24.326973 -0.000000 -32.862282
LeftUpLeg 9.880351 8.283713 6.119424
LeftLeg -8.239934 -0.000000 0.000000
LeftFoot -12.736376 22.742847 -11.282174
LeftToeBase 21.515876 -0.000000 -0.000000
RightUpLeg 9.140352 -9.426753 1.130990
RightLeg -1.624705 -0.000000 0.000000
RightFoot -7.871735 -30.061774 7.427483
RightToeBase 12.711366 -0.000000 -0.000000
2352
root -5.871597 35.362159 -10.194279 -3.072798 4.488593 -3.931225
Spine -0.976056 -9.465944 -5.071037
Head -11.514523 -9.240440 10.244221
LeftShoulder -21.290313 12.340671 -18.001045
LeftArm 20.419466 8.760461 -63.956673
LeftForeArm 11.985665 -0.000000 16.978359
LeftHand 3.306227 -0.000000 -9.393536
LeftHandThumb1 -26.253704 0.000000 33.147579
RightShoulder -5.941347 13.763885 -48.936060
RightArm 19.831723 -18.158098 -16.210529
RightForeArm -39.319726 -0.000000 49.529264
RightHand 5.517304 -0.000000 27.227220
RightHandThumb1 -24.326973 -0.000000 -32.862282
LeftUpLeg 9.935463 8.245881 6.127288
LeftLeg -8.241526 -0.000000 0.000000
LeftFoot -12.711504 22.709730 -11.318006
LeftToeBase 21.460863 -0.000000 -0.000000
RightUpLeg 9.202770 -9.401452 1.127654
RightLeg -1.597526 -0.000000 0.000000
RightFoot -7.905335 -30.114700 7.502457
RightToeBase 12.689239 -0.000000 -0.000000
